<?xml version="1.0" encoding="UTF-8"?>
<svg id="Layer_2" data-name="Layer 2" xmlns="http://www.w3.org/2000/svg" xmlns:xlink="http://www.w3.org/1999/xlink" viewBox="0 0 256 256">
  <defs>
    <style>
      .cls-1 {
        stroke: #efe0d8;
        stroke-miterlimit: 10;
      }

      .cls-1, .cls-2 {
        fill: #efe0d8;
      }

      .cls-3 {
        fill: url(#linear-gradient);
      }

      .cls-3, .cls-4, .cls-5, .cls-6, .cls-7, .cls-8, .cls-9, .cls-2 {
        stroke-width: 0px;
      }

      .cls-4 {
        fill: #bdb5ac;
      }

      .cls-10 {
        clip-path: url(#clippath-2);
      }

      .cls-5 {
        fill: none;
      }

      .cls-6 {
        fill: #272832;
      }

      .cls-7 {
        fill: #494c60;
      }

      .cls-11 {
        clip-path: url(#clippath-1);
      }

      .cls-12 {
        clip-path: url(#clippath-4);
      }

      .cls-8 {
        fill: url(#linear-gradient-2);
      }

      .cls-9 {
        fill: url(#linear-gradient-3);
      }

      .cls-13 {
        clip-path: url(#clippath);
      }

      .cls-14 {
        clip-path: url(#clippath-3);
      }

      .cls-15 {
        clip-path: url(#clippath-5);
      }
    </style>
    <clipPath id="clippath">
      <circle class="cls-5" cx="128" cy="128" r="128"/>
    </clipPath>
    <linearGradient id="linear-gradient" x1="-12374.41" y1="-1283.99" x2="-12238.73" y2="-1066.87" gradientTransform="translate(-10528.77 -6138.3) rotate(-155)" gradientUnits="userSpaceOnUse">
      <stop offset=".02" stop-color="#92e5bc"/>
      <stop offset=".07" stop-color="#88d7d0"/>
      <stop offset=".15" stop-color="#7bc7ea"/>
      <stop offset=".22" stop-color="#74bdf9"/>
      <stop offset=".27" stop-color="#72baff"/>
      <stop offset=".33" stop-color="#90ced0"/>
      <stop offset=".4" stop-color="#aadfa8"/>
      <stop offset=".46" stop-color="#beed89"/>
      <stop offset=".52" stop-color="#cdf773"/>
      <stop offset=".58" stop-color="#d6fc65"/>
      <stop offset=".63" stop-color="#d9ff61"/>
      <stop offset=".71" stop-color="#e7ff77"/>
      <stop offset=".81" stop-color="#f4ff8b"/>
      <stop offset=".91" stop-color="#fcff97"/>
      <stop offset="1" stop-color="#ffff9c"/>
    </linearGradient>
    <linearGradient id="linear-gradient-2" x1="75.35" y1="131.44" x2="75.35" y2="233.65" gradientUnits="userSpaceOnUse">
      <stop offset=".13" stop-color="#31c923"/>
      <stop offset=".15" stop-color="#29c023"/>
      <stop offset=".27" stop-color="#0b9f23"/>
      <stop offset=".34" stop-color="#009323"/>
      <stop offset=".34" stop-color="#009223"/>
      <stop offset=".42" stop-color="#007923"/>
      <stop offset=".5" stop-color="#006a23"/>
      <stop offset=".56" stop-color="#006523"/>
    </linearGradient>
    <linearGradient id="linear-gradient-3" x1="149.83" y1="290.64" x2="229.97" y2="151.84" gradientUnits="userSpaceOnUse">
      <stop offset=".46" stop-color="#006523"/>
      <stop offset=".52" stop-color="#006a23"/>
      <stop offset=".59" stop-color="#007923"/>
      <stop offset=".68" stop-color="#009223"/>
      <stop offset=".68" stop-color="#009323"/>
      <stop offset=".73" stop-color="#0b9f23"/>
      <stop offset=".84" stop-color="#29c023"/>
      <stop offset=".87" stop-color="#31c923"/>
    </linearGradient>
    <clipPath id="clippath-1">
      <path class="cls-5" d="M182.98,70.36h0c12.02,3.86,32.28,10.93,46.6,19.07l1.27.72c5.1,2.46,6.56,9.14,3,13.74l-38.5,49.35c-1.49,1.92-4.07,2.56-6.2,1.53l-17.07-8.24-4.43-2.14-8.85-4.27c-2.13-1.03-3.24-3.44-2.66-5.8l14.21-57.75c1.39-5.65,7.52-8.66,12.62-6.2Z"/>
    </clipPath>
    <clipPath id="clippath-2">
      <path class="cls-5" d="M289,154.48h0c-7.23-12.11-20.01-32.41-32.32-46.12l-1.09-1.21c-3.93-4.97-11.27-5.17-15.12-.42l-41.17,51.37c-1.61,1.99-1.58,4.88.06,6.96l13.15,16.64,3.41,4.32,6.81,8.62c1.64,2.08,4.45,2.77,6.76,1.67l56.41-27.03c5.52-2.64,7.02-9.84,3.09-14.81Z"/>
    </clipPath>
    <clipPath id="clippath-3">
      <path class="cls-5" d="M153.33,65.67h0c-16.43-1.13-32.92-1.17-49.36-.09l-1.45.09c-5.66,0-9.88,5.23-8.67,10.76l12.31,56.59c.5,2.31,2.55,3.96,4.91,3.96h33.71c2.37,0,4.41-1.65,4.91-3.96l12.31-56.59c1.2-5.53-3.01-10.76-8.67-10.76Z"/>
    </clipPath>
    <clipPath id="clippath-4">
      <path class="cls-5" d="M72.9,70.36h0c-12.02,3.86-32.28,10.93-46.6,19.07l-1.27.72c-5.1,2.46-6.56,9.14-3,13.74l38.5,49.35c1.49,1.92,4.07,2.56,6.2,1.53l17.07-8.24,4.43-2.14,8.85-4.27c2.13-1.03,3.24-3.44,2.66-5.8l-14.21-57.75c-1.39-5.65-7.52-8.66-12.62-6.2Z"/>
    </clipPath>
    <clipPath id="clippath-5">
      <path class="cls-5" d="M-33.13,154.48h0c7.23-12.11,20.01-32.41,32.32-46.12l1.09-1.21c3.93-4.97,11.27-5.17,15.12-.42l41.17,51.37c1.61,1.99,1.58,4.88-.06,6.96l-13.15,16.64-3.41,4.32-6.81,8.62c-1.64,2.08-4.45,2.77-6.76,1.67l-56.41-27.03c-5.52-2.64-7.02-9.84-3.09-14.81Z"/>
    </clipPath>
  </defs>
  <g class="cls-13">
    <circle class="cls-3" cx="128" cy="128" r="128"/>
    <g>
      <path class="cls-8" d="M13.35,139s19.36-9.51,54.43-7.19,76.15,8.67,92.29,21.56c16.13,12.89-37.65,13.31-67.98,20.29-30.33,6.97-53.57,22.61-53.35,40.16.22,17.54-26.03,21.56-26.89,19.23-.86-2.32-25.6-50.3-24.09-59.18,1.51-8.88,10.54-21.56,13.77-25.78,3.23-4.23,11.83-9.09,11.83-9.09Z"/>
      <path class="cls-9" d="M239,239.89v-78.22h-32.06c-5.02,13.64-60.52,23.79-66.97,42.88-4.2,12.44,30.97,28.47,80.03,35.34h19Z"/>
    </g>
    <g>
      <g>
        <g class="cls-11">
          <path class="cls-4" d="M182.98,70.36h0c12.02,3.86,32.28,10.93,46.6,19.07l1.27.72c5.1,2.46,6.56,9.14,3,13.74l-38.5,49.35c-1.49,1.92-4.07,2.56-6.2,1.53l-17.07-8.24-4.43-2.14-8.85-4.27c-2.13-1.03-3.24-3.44-2.66-5.8l14.21-57.75c1.39-5.65,7.52-8.66,12.62-6.2Z"/>
          <path class="cls-7" d="M193.38,144.75c-3.67-.3-9.27-3.45-12.6-5.03-2.68-1.27-5.39-2.49-8.13-3.61-4.15-1.68-7.26-2.16-10.53-5.28-2.62-2.5-3.13-6.58-3.64-7.3-1.83-2.8-3.89,10.61-4.17,11.75-.59,2.79.57,5.5,3.21,6.77,9.33,3.8,18.85,7.36,27.47,12.72,3.31,2.22,8.36,3.97,11.27.21,2.15-2.6,4.2-5.29,6.3-7.92.44-.56.97-1.47.81-2.09-.15-.6,1.65-3.68,1.05-3.72-1.14-.05-8.43,3.71-11.04,3.5Z"/>
          <g>
            <polygon class="cls-1" points="164.84 97.84 167.01 95.55 175.87 83.1 173.18 82.04 182.5 78.53 187.07 76.81 194.44 79.73 201.92 78.06 214.06 86.38 223.83 86.78 236.3 99.41 232.01 90.81 234.12 89.05 232.37 91.33 214.43 80.25 182.57 73.36 176.26 69.49 173.05 74.62 167.85 82.69 167.62 96.21 164.69 95.86 164.84 97.84"/>
            <path class="cls-1" d="M245.54,112.33l-10.29-20.64,14.63-19.1-18.29,15.31-16.21-10.01-31.87-6.89-8.05-4.94-4.53,7.22-5.57,8.65-.19,11.46-3.2-.39.78,10.66,4.7-4.96,2.62.32.06-3.56,9.36-13.14,7.55-2.84,7.19,2.85,7.17-1.6,11.84,8.12,9.51.39,22.79,23.09ZM171.99,84.25l-1.7,2.39.05-3.04,1.65.66ZM213.48,82.6l2.18,1.34-.78-.03-2.15-1.48.76.16ZM182.42,75.88l-9.53,3.59,4.17-6.55,4.56,2.79.79.17Z"/>
          </g>
        </g>
        <g class="cls-10">
          <path class="cls-4" d="M289,154.48h0c-7.23-12.11-20.01-32.41-32.32-46.12l-1.09-1.21c-3.93-4.97-11.27-5.17-15.12-.42l-41.17,51.37c-1.61,1.99-1.58,4.88.06,6.96l13.15,16.64,3.41,4.32,6.81,8.62c1.64,2.08,4.45,2.77,6.76,1.67l56.41-27.03c5.52-2.64,7.02-9.84,3.09-14.81Z"/>
          <path class="cls-7" d="M219.05,178.56c-2.76-4.46-5.44-9.22-8.83-13.33-2.59-3.34-2.76-7.2-4.42-10.93-.74-1.3,1.26-5.15-.13-5.73-1.56.16-4.94,3.9-5.97,5.07-4.28,5.62-5.32,8.42-.72,14.88,21.35,29.94,27.29,31.97,44.07,26.66,6.29-2.56-8.67-1.75-11.74-5.4-3.17-3.85-9.52-6.89-12.15-11.03l-.11-.18Z"/>
          <g>
            <polygon class="cls-1" points="215.49 138.94 226.42 119.39 242.11 106.25 255.36 85.67 264.07 88.02 267.01 89.11 263.63 92.63 264.73 95.84 254.4 99.71 256.1 102.63 256.42 109.02 273.11 123.96 282.51 142.14 299.7 159.56 295.5 167.55 293.8 170.18 291.1 166.11 287.73 166.48 286.21 155.56 277.53 150.99 271.3 134.21 264.64 130.46 260.86 120.92 252.23 115.78 243.29 112.51 239.46 121.52 231.54 124.17 229.26 133.99 217.47 142.56 208.36 150.48 208.13 147.8 215.49 138.94"/>
            <path class="cls-1" d="M293.8,171.09l2.12-3.27,4.39-8.35-17.39-17.62-9.48-18.26-16.53-14.79-.32-6.31-1.46-2.52,10.23-3.83-1.16-3.38,3.7-3.85-3.66-1.36-9.1-2.46-13.4,20.82-15.75,13.24-10.91,19.5-7.47,8.99.34,3.86,9.85-8.56,11.91-8.66,2.25-9.73,7.87-2.64,3.74-8.77,8.49,3.1,8.4,5.01,3.78,9.55,6.66,3.75,6.23,16.79,8.62,4.54,1.55,11.15,3.55-.4,2.95,4.46ZM299.09,159.65l-4.02,7.66-1.27,1.95-2.44-3.69-3.19.35-1.49-10.69-8.73-4.6-6.23-16.78-6.67-3.75-3.78-9.53-8.78-5.23-9.46-3.47-3.93,9.23-7.97,2.67-2.29,9.91-11.64,8.46-8.41,7.3-.13-1.5,7.28-8.78,10.88-19.46,15.73-13.2,13.05-20.27,8.35,2.25,2.18.81-3.07,3.19,1.04,3.04-10.42,3.9,1.93,3.33.33,6.48,16.77,15.01,9.45,18.23,16.93,17.16Z"/>
          </g>
        </g>
      </g>
      <g>
        <g class="cls-14">
          <path class="cls-4" d="M153.33,65.67h0c-16.43-1.13-32.92-1.17-49.36-.09l-1.45.09c-5.66,0-9.88,5.23-8.67,10.76l12.31,56.59c.5,2.31,2.55,3.96,4.91,3.96h33.71c2.37,0,4.41-1.65,4.91-3.96l12.31-56.59c1.2-5.53-3.01-10.76-8.67-10.76Z"/>
          <path class="cls-7" d="M154.03,119.31c-3.03,3.13-5.3,5.76-9.56,4.97-5.42-1.11-10.88-.54-16.35-.59h0c-.07,0-.14,0-.2,0-.07,0-.14,0-.2,0h0c-5.47.05-10.93-.53-16.35.59-4.25.8-6.53-1.83-9.56-4.97-2.44-1.53.22,13.14.47,14.33.45,1.8,1.09,3.83,2.83,4.81,2.02,1.12,4.64.7,6.9.58,5.26-.45,10.59-.64,15.91-.58,5.32-.05,10.65.14,15.91.58,2.26.12,4.88.54,6.9-.58,1.73-.98,2.38-3.01,2.83-4.81.25-1.19,2.91-15.86.47-14.33Z"/>
          <g>
            <polygon class="cls-2" points="159.31 66.57 142.67 62.27 105.97 65.33 91.53 64.31 97.54 93.07 95.44 72.85 98.46 67.36 107.78 69.87 114.07 67.36 125.28 69.04 137.87 66.37 150.73 70.49 159.77 75.03 157.75 80.09 160.2 86.93 157.13 91.72 158.92 95.75 164.16 78.15 162.42 69.39 159.31 66.57"/>
            <path class="cls-2" d="M159.58,105.81l-6.42-14.38,3.16-4.93-2.32-6.47,1.32-3.31-5.93-2.97-11.71-3.75-12.3,2.61-10.9-1.63-6.5,2.6-7.79-2.1-1.17,2.12,1.98,19.13-6.91,1.08-6.95-33.29,18.79,1.33,37.03-3.08,18.04,4.67,4.61,4.17,2.13,10.74-8.18,27.49ZM156.49,69.46l1.77.89-.67-.61-1.11-.29Z"/>
          </g>
          <g>
            <polygon class="cls-2" points="96.02 63.75 113.21 65.15 150 62.45 163.42 67.04 160.13 95.29 163.23 73.38 157.33 70.24 148.39 67.02 142.16 70.21 131.19 66.23 118.28 69.23 104.85 67.62 98.86 75.74 95.23 79.88 98.49 86.52 95.85 91.56 96.56 98.6 94.47 77.42 90.55 69.32 96.02 63.75"/>
            <path class="cls-2" d="M93.08,98.95h0s-.82-8.09-.82-8.09v-.03s-1.1-11.29-1.1-11.29l-.1-.21.07-.08-.09-.87-4.72-9.75,8.34-8.51,18.56,1.51,37.23-2.72,16.77,5.73-.76,6.5.57.3-3.44,24.33-6.94-.89,2.31-19.81-3.06-1.63-7.27-2.62-6.23,3.2-11.44-4.14-12.5,2.9-12.01-1.43-4.97,6.71-2.09,2.39,3.02,6.14-2.97,5.66.59,6.02-6.97.7ZM94.77,70.02l1.57,3.24,4.16-5.63-3.13-.25-2.6,2.65Z"/>
          </g>
        </g>
        <g class="cls-12">
          <path class="cls-4" d="M72.9,70.36h0c-12.02,3.86-32.28,10.93-46.6,19.07l-1.27.72c-5.1,2.46-6.56,9.14-3,13.74l38.5,49.35c1.49,1.92,4.07,2.56,6.2,1.53l17.07-8.24,4.43-2.14,8.85-4.27c2.13-1.03,3.24-3.44,2.66-5.8l-14.21-57.75c-1.39-5.65-7.52-8.66-12.62-6.2Z"/>
          <path class="cls-7" d="M62.5,144.75c3.67-.3,9.27-3.45,12.6-5.03,2.68-1.27,5.39-2.49,8.13-3.61,4.15-1.68,7.26-2.16,10.53-5.28,2.62-2.5,3.13-6.58,3.64-7.3,1.83-2.8,3.89,10.61,4.17,11.75.59,2.79-.57,5.5-3.21,6.77-9.33,3.8-18.85,7.36-27.47,12.72-3.31,2.22-8.36,3.97-11.27.21-2.15-2.6-4.2-5.29-6.3-7.92-.44-.56-.97-1.47-.81-2.09.15-.6-1.65-3.68-1.05-3.72,1.14-.05,8.43,3.71,11.04,3.5Z"/>
          <g>
            <polygon class="cls-2" points="91.04 97.84 88.87 95.55 80 83.1 82.7 82.04 73.38 78.53 68.81 76.81 61.44 79.73 53.96 78.06 41.82 86.38 32.05 86.78 19.58 99.41 23.87 90.81 21.76 89.05 23.51 91.33 41.45 80.25 73.31 73.36 79.61 69.49 82.83 74.62 88.03 82.69 88.25 96.21 91.19 95.86 91.04 97.84"/>
            <path class="cls-2" d="M10.34,112.33l10.29-20.64-14.63-19.1,18.29,15.31,16.21-10.01,31.87-6.89,8.05-4.94,4.53,7.22,5.57,8.65.19,11.46,3.2-.39-.78,10.66-4.7-4.96-2.62.32-.06-3.56-9.36-13.14-7.55-2.84-7.19,2.85-7.17-1.6-11.84,8.12-9.51.39-22.79,23.09ZM83.89,84.25l1.7,2.39-.05-3.04-1.65.66ZM42.39,82.6l-2.18,1.34.78-.03,2.15-1.48-.76.16ZM73.45,75.88l9.53,3.59-4.17-6.55-4.56,2.79-.79.17Z"/>
          </g>
        </g>
        <g class="cls-15">
          <path class="cls-4" d="M-33.13,154.48h0c7.23-12.11,20.01-32.41,32.32-46.12l1.09-1.21c3.93-4.97,11.27-5.17,15.12-.42l41.17,51.37c1.61,1.99,1.58,4.88-.06,6.96l-13.15,16.64-3.41,4.32-6.81,8.62c-1.64,2.08-4.45,2.77-6.76,1.67l-56.41-27.03c-5.52-2.64-7.02-9.84-3.09-14.81Z"/>
          <path class="cls-7" d="M36.83,178.56c2.76-4.46,5.44-9.22,8.83-13.33,2.59-3.34,2.76-7.2,4.42-10.93.74-1.3-1.26-5.15.13-5.73,1.56.16,4.94,3.9,5.97,5.07,4.28,5.62,5.32,8.42.72,14.88-21.35,29.94-27.29,31.97-44.07,26.66-6.29-2.56,8.67-1.75,11.74-5.4,3.17-3.85,9.52-6.89,12.15-11.03l.11-.18Z"/>
          <g>
            <polygon class="cls-2" points="40.39 138.94 29.46 119.39 13.76 106.25 .52 85.67 -8.19 88.02 -11.13 89.11 -7.75 92.63 -8.85 95.84 1.48 99.71 -.22 102.63 -.54 109.02 -17.23 123.96 -26.63 142.14 -43.82 159.56 -39.63 167.55 -37.92 170.18 -35.22 166.11 -31.85 166.48 -30.33 155.56 -21.66 150.99 -15.42 134.21 -8.76 130.46 -4.98 120.92 3.65 115.78 12.59 112.51 16.42 121.52 24.34 124.17 26.62 133.99 38.4 142.56 47.52 150.48 47.75 147.8 40.39 138.94"/>
            <path class="cls-2" d="M-37.92,171.09l-2.12-3.27-4.39-8.35,17.39-17.62,9.48-18.26L-1.03,108.79l.32-6.31,1.46-2.52-10.23-3.83,1.16-3.38-3.7-3.85,3.66-1.36,9.1-2.46,13.4,20.82,15.75,13.24,10.91,19.5,7.47,8.99-.34,3.86-9.85-8.56-11.91-8.66-2.25-9.73-7.87-2.64-3.74-8.77-8.49,3.1-8.4,5.01-3.78,9.55-6.66,3.75-6.23,16.79-8.62,4.54-1.55,11.15-3.55-.4-2.95,4.46ZM-43.21,159.65l4.02,7.66,1.27,1.95,2.44-3.69,3.19.35,1.49-10.69,8.73-4.6,6.23-16.78,6.67-3.75,3.78-9.53,8.78-5.23,9.46-3.47,3.93,9.23,7.97,2.67,2.29,9.91,11.64,8.46,8.41,7.3.13-1.5-7.28-8.78-10.88-19.46-15.73-13.2L.29,86.25l-8.35,2.25-2.18.81,3.07,3.19-1.04,3.04,10.42,3.9-1.93,3.33-.33,6.48-16.77,15.01-9.45,18.23-16.93,17.16Z"/>
          </g>
        </g>
      </g>
      <g>
        <path class="cls-6" d="M127.94,64.79c8.47,0,16.94.29,25.39.88,5.66,0,9.88,5.23,8.67,10.76l-12.31,56.59c-.5,2.31-2.55,3.96-4.91,3.96h-33.71c-2.37,0-4.41-1.65-4.91-3.96l-12.31-56.59c-1.2-5.53,3.01-10.76,8.67-10.76l1.45-.1c7.98-.52,15.97-.78,23.97-.78M127.94,58.79c-8.09,0-16.29.27-24.36.79l-1.28.08c-4.44.06-8.57,2.08-11.36,5.54-2.84,3.52-3.91,8.08-2.95,12.5l12.31,56.59c1.1,5.03,5.63,8.68,10.78,8.68h33.71c5.15,0,9.68-3.65,10.78-8.68l12.31-56.59c.96-4.42-.12-8.97-2.95-12.5-2.79-3.46-6.92-5.47-11.35-5.54-8.49-.58-17.11-.88-25.62-.88h0Z"/>
        <path class="cls-6" d="M76.67,69.5c4,0,7.8,2.77,8.85,7.06l14.21,57.75c.58,2.36-.52,4.78-2.66,5.8l-8.85,4.27-4.43,2.14-17.07,8.24c-.68.33-1.41.49-2.14.49-1.54,0-3.05-.71-4.06-2.02l-38.5-49.35c-3.56-4.6-2.1-11.28,3-13.74l1.27-.72c14.32-8.14,34.59-15.21,46.6-19.07,1.22-.59,2.51-.87,3.77-.87M76.67,63.5c-2.06,0-4.06.43-5.95,1.27-13.93,4.49-33.33,11.47-47.38,19.45l-1.11.63c-3.91,1.96-6.73,5.54-7.74,9.85-1.06,4.5-.04,9.19,2.81,12.86l38.52,49.37c2.09,2.7,5.38,4.33,8.79,4.33,1.63,0,3.27-.38,4.74-1.08l17.07-8.24,4.43-2.14,8.85-4.27c4.65-2.25,7.12-7.56,5.87-12.64l-14.21-57.75c-1.69-6.85-7.72-11.63-14.68-11.63h0Z"/>
        <path class="cls-6" d="M8.14,103.29c2.72,0,5.4,1.14,7.26,3.44l41.17,51.37c1.61,1.99,1.58,4.88-.06,6.96l-13.15,16.64-3.41,4.32-6.81,8.62c-1.12,1.41-2.78,2.19-4.45,2.19-.78,0-1.57-.17-2.31-.52l-56.41-27.03c-5.52-2.64-7.02-9.84-3.09-14.81,7.23-12.11,20.01-32.41,32.32-46.12l1.09-1.21c2.03-2.56,4.96-3.86,7.86-3.86M8.14,97.29h0c-4.83,0-9.36,2.18-12.44,5.98l-.98,1.09c-12.03,13.4-24.45,32.76-32.82,46.75-2.86,3.82-3.89,8.61-2.82,13.21,1.06,4.58,4.08,8.36,8.29,10.38l56.41,27.03c1.54.74,3.19,1.11,4.9,1.11,3.58,0,6.92-1.63,9.16-4.47l6.81-8.62,3.41-4.32,13.15-16.64c3.41-4.31,3.41-10.25.01-14.45l-41.15-51.35c-2.93-3.62-7.28-5.69-11.94-5.69h0Z"/>
        <path class="cls-6" d="M179.33,69.5c1.26,0,2.54.28,3.77.87,12.02,3.86,32.28,10.93,46.6,19.07l1.27.72c5.1,2.46,6.56,9.14,3,13.74l-38.5,49.35c-1.01,1.31-2.52,2.02-4.06,2.02-.72,0-1.45-.16-2.14-.49l-17.07-8.24-4.43-2.14-8.85-4.27c-2.13-1.03-3.24-3.44-2.66-5.8l14.21-57.75c1.06-4.29,4.85-7.06,8.85-7.06M179.33,63.5h0c-6.96,0-13,4.78-14.68,11.63l-14.21,57.75c-1.25,5.08,1.22,10.39,5.87,12.64l8.85,4.27,4.43,2.14,17.07,8.24c1.47.71,3.11,1.08,4.74,1.08,3.41,0,6.7-1.63,8.81-4.35l38.48-49.33c2.86-3.7,3.88-8.39,2.82-12.88-1.02-4.31-3.83-7.88-7.74-9.85l-1.11-.63c-14.05-7.98-33.45-14.97-47.38-19.45-1.89-.84-3.89-1.27-5.95-1.27h0Z"/>
        <path class="cls-6" d="M247.86,103.29c2.9,0,5.83,1.3,7.86,3.86l1.09,1.21c12.31,13.71,25.09,34.01,32.32,46.12,3.93,4.97,2.42,12.16-3.09,14.81l-56.41,27.03c-.73.35-1.52.52-2.31.52-1.67,0-3.34-.77-4.45-2.19l-6.81-8.62-3.41-4.32-13.15-16.64c-1.64-2.08-1.66-4.97-.06-6.96l41.17-51.37c1.86-2.3,4.54-3.44,7.26-3.44M247.86,97.29c-4.67,0-9.01,2.07-11.93,5.67l-41.19,51.39c-3.38,4.18-3.37,10.12.03,14.43l13.15,16.64,3.41,4.32,6.81,8.62c2.24,2.84,5.58,4.47,9.16,4.47,1.71,0,3.36-.37,4.9-1.11l56.41-27.03c4.21-2.02,7.23-5.8,8.29-10.38,1.07-4.6.04-9.39-2.82-13.21-8.37-13.99-20.8-33.35-32.82-46.75l-.98-1.09c-3.08-3.8-7.6-5.98-12.44-5.98h0Z"/>
      </g>
      <g>
        <path class="cls-6" d="M127.94,65.29c8.42,0,16.95.29,25.39.88,2.55,0,4.92,1.14,6.52,3.12,1.6,1.98,2.2,4.55,1.66,7.04l-12.31,56.59c-.45,2.07-2.31,3.57-4.43,3.57h-33.71c-2.11,0-3.98-1.5-4.43-3.57l-12.31-56.59c-.54-2.49.06-5.05,1.66-7.04,1.6-1.98,3.98-3.12,6.55-3.12l1.45-.1c7.93-.52,15.99-.78,23.94-.78M127.94,64.79c-7.99,0-15.99.26-23.97.78l-1.45.1c-5.66,0-9.88,5.23-8.67,10.76l12.31,56.59c.5,2.31,2.55,3.96,4.91,3.96h33.71c2.37,0,4.41-1.65,4.91-3.96l12.31-56.59c1.2-5.53-3.01-10.76-8.67-10.76-8.45-.58-16.92-.88-25.39-.88h0Z"/>
        <path class="cls-6" d="M76.67,70c3.96,0,7.4,2.75,8.37,6.68l14.21,57.75c.52,2.11-.48,4.31-2.39,5.23l-8.85,4.27-4.43,2.14-17.07,8.24c-.6.29-1.25.44-1.92.44-1.41,0-2.78-.68-3.67-1.83l-38.5-49.35c-1.64-2.12-2.23-4.82-1.62-7.4.58-2.47,2.2-4.5,4.47-5.6l1.27-.72c13.69-7.78,32.85-14.64,46.51-19.03h.03s.03-.03.03-.03c1.12-.54,2.32-.82,3.55-.82M76.67,69.5c-1.26,0-2.54.28-3.77.87-12.02,3.86-32.28,10.93-46.6,19.07l-1.27.72c-5.1,2.46-6.56,9.14-3,13.74l38.5,49.35c1.01,1.31,2.52,2.02,4.06,2.02.72,0,1.45-.16,2.14-.49l17.07-8.24,4.43-2.14,8.85-4.27c2.13-1.03,3.24-3.44,2.66-5.8l-14.21-57.75c-1.06-4.29-4.85-7.06-8.85-7.06h0Z"/>
        <path class="cls-6" d="M8.14,103.79h0c2.69,0,5.2,1.19,6.87,3.25l41.17,51.38c1.45,1.79,1.42,4.46-.06,6.34l-13.15,16.64-3.41,4.32-6.81,8.62c-.99,1.25-2.51,2-4.06,2-.73,0-1.44-.16-2.09-.47l-56.41-27.03c-2.42-1.16-4.16-3.34-4.77-5.99-.65-2.81.03-5.75,1.85-8.06l.02-.03.02-.03C-24.47,140.97-12.2,121.8-.44,108.7l1.11-1.24c1.84-2.33,4.56-3.67,7.47-3.67M8.14,103.29c-2.9,0-5.83,1.3-7.86,3.86l-1.09,1.21c-12.31,13.71-25.09,34.01-32.32,46.12-3.93,4.97-2.42,12.16,3.09,14.81l56.41,27.03c.73.35,1.52.52,2.31.52,1.67,0,3.34-.77,4.45-2.19l6.81-8.62,3.41-4.32,13.15-16.64c1.64-2.08,1.66-4.97.06-6.96L15.4,106.73c-1.86-2.3-4.54-3.44-7.26-3.44h0Z"/>
        <path class="cls-6" d="M179.33,70h0c1.23,0,2.43.27,3.55.82l.03.02h.03c13.66,4.4,32.82,11.26,46.51,19.04l1.3.74c2.24,1.08,3.86,3.12,4.44,5.58.61,2.58.02,5.28-1.62,7.4l-38.5,49.35c-.88,1.14-2.25,1.82-3.66,1.82-.67,0-1.32-.15-1.92-.44l-17.07-8.24-4.43-2.14-8.85-4.27c-1.9-.92-2.91-3.12-2.39-5.23l14.21-57.75c.97-3.93,4.41-6.68,8.37-6.68M179.33,69.5c-4,0-7.8,2.77-8.85,7.06l-14.21,57.75c-.58,2.36.52,4.78,2.66,5.8l8.85,4.27,4.43,2.14,17.07,8.24c.68.33,1.41.49,2.14.49,1.54,0,3.05-.71,4.06-2.02l38.5-49.35c3.56-4.6,2.1-11.28-3-13.74l-1.27-.72c-14.32-8.14-34.59-15.21-46.6-19.07-1.22-.59-2.51-.87-3.77-.87h0Z"/>
        <path class="cls-6" d="M247.86,103.79c2.9,0,5.62,1.34,7.49,3.69l1.09,1.21c11.76,13.11,24.04,32.27,32.26,46.04l.02.03.02.03c1.83,2.31,2.51,5.25,1.85,8.06-.61,2.65-2.35,4.83-4.77,5.99l-56.41,27.03c-.65.31-1.36.47-2.09.47-1.56,0-3.07-.75-4.06-2l-6.81-8.62-3.41-4.32-13.15-16.64c-1.48-1.88-1.51-4.54-.06-6.34l41.17-51.37c1.67-2.07,4.18-3.26,6.87-3.26M247.86,103.29c-2.72,0-5.4,1.14-7.26,3.44l-41.17,51.37c-1.61,1.99-1.58,4.88.06,6.96l13.15,16.64,3.41,4.32,6.81,8.62c1.12,1.41,2.78,2.19,4.45,2.19.78,0,1.57-.17,2.31-.52l56.41-27.03c5.52-2.64,7.02-9.84,3.09-14.81-7.23-12.11-20.01-32.41-32.32-46.12l-1.09-1.21c-2.03-2.56-4.96-3.86-7.86-3.86h0Z"/>
      </g>
    </g>
  </g>
  <path class="cls-6" d="M128,5c32.85,0,63.74,12.79,86.97,36.03,23.23,23.23,36.03,54.12,36.03,86.97s-12.79,63.74-36.03,86.97-54.12,36.03-86.97,36.03-63.74-12.79-86.97-36.03S5,160.85,5,128s12.79-63.74,36.03-86.97S95.15,5,128,5M128,0C57.31,0,0,57.31,0,128s57.31,128,128,128,128-57.31,128-128S198.69,0,128,0h0Z"/>
</svg>