<?xml version="1.0" encoding="UTF-8" standalone="no"?>
<svg
   id="Layer_2"
   data-name="Layer 2"
   viewBox="0 0 1166 256"
   version="1.1"
   sodipodi:docname="icon2.svg"
   inkscape:version="1.4 (e7c3feb1, 2024-10-09)"
   width="1166"
   height="256"
   xmlns:inkscape="http://www.inkscape.org/namespaces/inkscape"
   xmlns:sodipodi="http://sodipodi.sourceforge.net/DTD/sodipodi-0.dtd"
   xmlns="http://www.w3.org/2000/svg"
   xmlns:svg="http://www.w3.org/2000/svg">
  <sodipodi:namedview
     id="namedview67"
     pagecolor="#ffffff"
     bordercolor="#000000"
     borderopacity="0.25"
     inkscape:showpageshadow="2"
     inkscape:pageopacity="0.0"
     inkscape:pagecheckerboard="0"
     inkscape:deskcolor="#d1d1d1"
     inkscape:zoom="2.7869951"
     inkscape:cx="128.09495"
     inkscape:cy="127.73614"
     inkscape:window-width="2560"
     inkscape:window-height="1387"
     inkscape:window-x="0"
     inkscape:window-y="25"
     inkscape:window-maximized="0"
     inkscape:current-layer="Layer_2" />
  <defs
     id="defs35">
    <rect
       x="247.62735"
       y="62.921703"
       width="373.47076"
       height="97.427155"
       id="rect68" />
    <style
       id="style1">
      .cls-1 {
        stroke: #efe0d8;
        stroke-miterlimit: 10;
      }

      .cls-1, .cls-2 {
        fill: #efe0d8;
      }

      .cls-3 {
        fill: url(#linear-gradient);
      }

      .cls-3, .cls-4, .cls-5, .cls-6, .cls-7, .cls-8, .cls-9, .cls-2 {
        stroke-width: 0px;
      }

      .cls-4 {
        fill: #bdb5ac;
      }

      .cls-10 {
        clip-path: url(#clippath-2);
      }

      .cls-5 {
        fill: none;
      }

      .cls-6 {
        fill: #272832;
      }

      .cls-7 {
        fill: #494c60;
      }

      .cls-11 {
        clip-path: url(#clippath-1);
      }

      .cls-12 {
        clip-path: url(#clippath-4);
      }

      .cls-8 {
        fill: url(#linear-gradient-2);
      }

      .cls-9 {
        fill: url(#linear-gradient-3);
      }

      .cls-13 {
        clip-path: url(#clippath);
      }

      .cls-14 {
        clip-path: url(#clippath-3);
      }

      .cls-15 {
        clip-path: url(#clippath-5);
      }
    </style>
    <clipPath
       id="clippath">
      <circle
         class="cls-5"
         cx="128"
         cy="128"
         r="128"
         id="circle1" />
    </clipPath>
    <linearGradient
       id="linear-gradient"
       x1="-12374.41"
       y1="-1283.99"
       x2="-12238.73"
       y2="-1066.87"
       gradientTransform="rotate(-155,-5944.7992,-1902.0639)"
       gradientUnits="userSpaceOnUse">
      <stop
         offset=".02"
         stop-color="#92e5bc"
         id="stop1" />
      <stop
         offset=".07"
         stop-color="#88d7d0"
         id="stop2" />
      <stop
         offset=".15"
         stop-color="#7bc7ea"
         id="stop3" />
      <stop
         offset=".22"
         stop-color="#74bdf9"
         id="stop4" />
      <stop
         offset=".27"
         stop-color="#72baff"
         id="stop5" />
      <stop
         offset=".33"
         stop-color="#90ced0"
         id="stop6" />
      <stop
         offset=".4"
         stop-color="#aadfa8"
         id="stop7" />
      <stop
         offset=".46"
         stop-color="#beed89"
         id="stop8" />
      <stop
         offset=".52"
         stop-color="#cdf773"
         id="stop9" />
      <stop
         offset=".58"
         stop-color="#d6fc65"
         id="stop10" />
      <stop
         offset=".63"
         stop-color="#d9ff61"
         id="stop11" />
      <stop
         offset=".71"
         stop-color="#e7ff77"
         id="stop12" />
      <stop
         offset=".81"
         stop-color="#f4ff8b"
         id="stop13" />
      <stop
         offset=".91"
         stop-color="#fcff97"
         id="stop14" />
      <stop
         offset="1"
         stop-color="#ffff9c"
         id="stop15" />
    </linearGradient>
    <linearGradient
       id="linear-gradient-2"
       x1="75.349998"
       y1="131.44"
       x2="75.349998"
       y2="233.64999"
       gradientUnits="userSpaceOnUse">
      <stop
         offset=".13"
         stop-color="#31c923"
         id="stop16" />
      <stop
         offset=".15"
         stop-color="#29c023"
         id="stop17" />
      <stop
         offset=".27"
         stop-color="#0b9f23"
         id="stop18" />
      <stop
         offset=".34"
         stop-color="#009323"
         id="stop19" />
      <stop
         offset=".34"
         stop-color="#009223"
         id="stop20" />
      <stop
         offset=".42"
         stop-color="#007923"
         id="stop21" />
      <stop
         offset=".5"
         stop-color="#006a23"
         id="stop22" />
      <stop
         offset=".56"
         stop-color="#006523"
         id="stop23" />
    </linearGradient>
    <linearGradient
       id="linear-gradient-3"
       x1="149.83"
       y1="290.64001"
       x2="229.97"
       y2="151.84"
       gradientUnits="userSpaceOnUse">
      <stop
         offset=".46"
         stop-color="#006523"
         id="stop24" />
      <stop
         offset=".52"
         stop-color="#006a23"
         id="stop25" />
      <stop
         offset=".59"
         stop-color="#007923"
         id="stop26" />
      <stop
         offset=".68"
         stop-color="#009223"
         id="stop27" />
      <stop
         offset=".68"
         stop-color="#009323"
         id="stop28" />
      <stop
         offset=".73"
         stop-color="#0b9f23"
         id="stop29" />
      <stop
         offset=".84"
         stop-color="#29c023"
         id="stop30" />
      <stop
         offset=".87"
         stop-color="#31c923"
         id="stop31" />
    </linearGradient>
    <clipPath
       id="clippath-1">
      <path
         class="cls-5"
         d="m 182.98,70.36 v 0 c 12.02,3.86 32.28,10.93 46.6,19.07 l 1.27,0.72 c 5.1,2.46 6.56,9.14 3,13.74 l -38.5,49.35 c -1.49,1.92 -4.07,2.56 -6.2,1.53 l -17.07,-8.24 -4.43,-2.14 -8.85,-4.27 c -2.13,-1.03 -3.24,-3.44 -2.66,-5.8 l 14.21,-57.75 c 1.39,-5.65 7.52,-8.66 12.62,-6.2 z"
         id="path31" />
    </clipPath>
    <clipPath
       id="clippath-2">
      <path
         class="cls-5"
         d="m 289,154.48 v 0 c -7.23,-12.11 -20.01,-32.41 -32.32,-46.12 l -1.09,-1.21 c -3.93,-4.97 -11.27,-5.17 -15.12,-0.42 L 199.3,158.1 c -1.61,1.99 -1.58,4.88 0.06,6.96 l 13.15,16.64 3.41,4.32 6.81,8.62 c 1.64,2.08 4.45,2.77 6.76,1.67 l 56.41,-27.03 c 5.52,-2.64 7.02,-9.84 3.09,-14.81 z"
         id="path32" />
    </clipPath>
    <clipPath
       id="clippath-3">
      <path
         class="cls-5"
         d="m 153.33,65.67 v 0 C 136.9,64.54 120.41,64.5 103.97,65.58 l -1.45,0.09 c -5.66,0 -9.88,5.23 -8.67,10.76 l 12.31,56.59 c 0.5,2.31 2.55,3.96 4.91,3.96 h 33.71 c 2.37,0 4.41,-1.65 4.91,-3.96 L 162,76.43 c 1.2,-5.53 -3.01,-10.76 -8.67,-10.76 z"
         id="path33" />
    </clipPath>
    <clipPath
       id="clippath-4">
      <path
         class="cls-5"
         d="m 72.9,70.36 v 0 C 60.88,74.22 40.62,81.29 26.3,89.43 l -1.27,0.72 c -5.1,2.46 -6.56,9.14 -3,13.74 l 38.5,49.35 c 1.49,1.92 4.07,2.56 6.2,1.53 l 17.07,-8.24 4.43,-2.14 8.85,-4.27 c 2.13,-1.03 3.24,-3.44 2.66,-5.8 L 85.53,76.57 c -1.39,-5.65 -7.52,-8.66 -12.62,-6.2 z"
         id="path34" />
    </clipPath>
    <clipPath
       id="clippath-5">
      <path
         class="cls-5"
         d="m -33.13,154.48 v 0 c 7.23,-12.11 20.01,-32.41 32.32,-46.12 l 1.09,-1.21 c 3.93,-4.97 11.27,-5.17 15.12,-0.42 l 41.17,51.37 c 1.61,1.99 1.58,4.88 -0.06,6.96 l -13.15,16.64 -3.41,4.32 -6.81,8.62 c -1.64,2.08 -4.45,2.77 -6.76,1.67 l -56.41,-27.03 c -5.52,-2.64 -7.02,-9.84 -3.09,-14.81 z"
         id="path35" />
    </clipPath>
  </defs>
  <g
     class="cls-13"
     clip-path="url(#clippath)"
     id="g67">
    <circle
       class="cls-3"
       cx="128"
       cy="128"
       r="128"
       id="circle35"
       style="fill:url(#linear-gradient)" />
    <g
       id="g37">
      <path
         class="cls-8"
         d="m 13.35,139 c 0,0 19.36,-9.51 54.43,-7.19 35.07,2.32 76.15,8.67 92.29,21.56 16.13,12.89 -37.65,13.31 -67.98,20.29 -30.33,6.97 -53.57,22.61 -53.35,40.16 0.22,17.54 -26.03,21.56 -26.89,19.23 -0.86,-2.32 -25.6,-50.3 -24.09,-59.18 1.51,-8.88 10.54,-21.56 13.77,-25.78 C 4.76,143.86 13.36,139 13.36,139 Z"
         id="path36"
         style="fill:url(#linear-gradient-2)" />
      <path
         class="cls-9"
         d="m 239,239.89 v -78.22 h -32.06 c -5.02,13.64 -60.52,23.79 -66.97,42.88 -4.2,12.44 30.97,28.47 80.03,35.34 z"
         id="path37"
         style="fill:url(#linear-gradient-3)" />
    </g>
    <g
       id="g66">
      <g
         id="g45">
        <g
           class="cls-11"
           clip-path="url(#clippath-1)"
           id="g41">
          <path
             class="cls-4"
             d="m 182.98,70.36 v 0 c 12.02,3.86 32.28,10.93 46.6,19.07 l 1.27,0.72 c 5.1,2.46 6.56,9.14 3,13.74 l -38.5,49.35 c -1.49,1.92 -4.07,2.56 -6.2,1.53 l -17.07,-8.24 -4.43,-2.14 -8.85,-4.27 c -2.13,-1.03 -3.24,-3.44 -2.66,-5.8 l 14.21,-57.75 c 1.39,-5.65 7.52,-8.66 12.62,-6.2 z"
             id="path38" />
          <path
             class="cls-7"
             d="m 193.38,144.75 c -3.67,-0.3 -9.27,-3.45 -12.6,-5.03 -2.68,-1.27 -5.39,-2.49 -8.13,-3.61 -4.15,-1.68 -7.26,-2.16 -10.53,-5.28 -2.62,-2.5 -3.13,-6.58 -3.64,-7.3 -1.83,-2.8 -3.89,10.61 -4.17,11.75 -0.59,2.79 0.57,5.5 3.21,6.77 9.33,3.8 18.85,7.36 27.47,12.72 3.31,2.22 8.36,3.97 11.27,0.21 2.15,-2.6 4.2,-5.29 6.3,-7.92 0.44,-0.56 0.97,-1.47 0.81,-2.09 -0.15,-0.6 1.65,-3.68 1.05,-3.72 -1.14,-0.05 -8.43,3.71 -11.04,3.5 z"
             id="path39" />
          <g
             id="g40">
            <polygon
               class="cls-1"
               points="223.83,86.78 236.3,99.41 232.01,90.81 234.12,89.05 232.37,91.33 214.43,80.25 182.57,73.36 176.26,69.49 173.05,74.62 167.85,82.69 167.62,96.21 164.69,95.86 164.84,97.84 167.01,95.55 175.87,83.1 173.18,82.04 182.5,78.53 187.07,76.81 194.44,79.73 201.92,78.06 214.06,86.38 "
               id="polygon39" />
            <path
               class="cls-1"
               d="M 245.54,112.33 235.25,91.69 249.88,72.59 231.59,87.9 215.38,77.89 183.51,71 l -8.05,-4.94 -4.53,7.22 -5.57,8.65 -0.19,11.46 -3.2,-0.39 0.78,10.66 4.7,-4.96 2.62,0.32 0.06,-3.56 9.36,-13.14 7.55,-2.84 7.19,2.85 7.17,-1.6 11.84,8.12 9.51,0.39 z m -73.55,-28.08 -1.7,2.39 0.05,-3.04 1.65,0.66 z m 41.49,-1.65 2.18,1.34 -0.78,-0.03 -2.15,-1.48 0.76,0.16 z m -31.06,-6.72 -9.53,3.59 4.17,-6.55 4.56,2.79 0.79,0.17 z"
               id="path40" />
          </g>
        </g>
        <g
           class="cls-10"
           clip-path="url(#clippath-2)"
           id="g44">
          <path
             class="cls-4"
             d="m 289,154.48 v 0 c -7.23,-12.11 -20.01,-32.41 -32.32,-46.12 l -1.09,-1.21 c -3.93,-4.97 -11.27,-5.17 -15.12,-0.42 L 199.3,158.1 c -1.61,1.99 -1.58,4.88 0.06,6.96 l 13.15,16.64 3.41,4.32 6.81,8.62 c 1.64,2.08 4.45,2.77 6.76,1.67 l 56.41,-27.03 c 5.52,-2.64 7.02,-9.84 3.09,-14.81 z"
             id="path41" />
          <path
             class="cls-7"
             d="m 219.05,178.56 c -2.76,-4.46 -5.44,-9.22 -8.83,-13.33 -2.59,-3.34 -2.76,-7.2 -4.42,-10.93 -0.74,-1.3 1.26,-5.15 -0.13,-5.73 -1.56,0.16 -4.94,3.9 -5.97,5.07 -4.28,5.62 -5.32,8.42 -0.72,14.88 21.35,29.94 27.29,31.97 44.07,26.66 6.29,-2.56 -8.67,-1.75 -11.74,-5.4 -3.17,-3.85 -9.52,-6.89 -12.15,-11.03 l -0.11,-0.18 z"
             id="path42" />
          <g
             id="g43">
            <polygon
               class="cls-1"
               points="254.4,99.71 256.1,102.63 256.42,109.02 273.11,123.96 282.51,142.14 299.7,159.56 295.5,167.55 293.8,170.18 291.1,166.11 287.73,166.48 286.21,155.56 277.53,150.99 271.3,134.21 264.64,130.46 260.86,120.92 252.23,115.78 243.29,112.51 239.46,121.52 231.54,124.17 229.26,133.99 217.47,142.56 208.36,150.48 208.13,147.8 215.49,138.94 226.42,119.39 242.11,106.25 255.36,85.67 264.07,88.02 267.01,89.11 263.63,92.63 264.73,95.84 "
               id="polygon42" />
            <path
               class="cls-1"
               d="m 293.8,171.09 2.12,-3.27 4.39,-8.35 -17.39,-17.62 -9.48,-18.26 -16.53,-14.79 -0.32,-6.31 -1.46,-2.52 10.23,-3.83 -1.16,-3.38 3.7,-3.85 -3.66,-1.36 -9.1,-2.46 -13.4,20.82 -15.75,13.24 -10.91,19.5 -7.47,8.99 0.34,3.86 9.85,-8.56 11.91,-8.66 2.25,-9.73 7.87,-2.64 3.74,-8.77 8.49,3.1 8.4,5.01 3.78,9.55 6.66,3.75 6.23,16.79 8.62,4.54 1.55,11.15 3.55,-0.4 z m 5.29,-11.44 -4.02,7.66 -1.27,1.95 -2.44,-3.69 -3.19,0.35 -1.49,-10.69 -8.73,-4.6 -6.23,-16.78 -6.67,-3.75 -3.78,-9.53 -8.78,-5.23 -9.46,-3.47 -3.93,9.23 -7.97,2.67 -2.29,9.91 -11.64,8.46 -8.41,7.3 -0.13,-1.5 7.28,-8.78 10.88,-19.46 15.73,-13.2 13.05,-20.27 8.35,2.25 2.18,0.81 -3.07,3.19 1.04,3.04 -10.42,3.9 1.93,3.33 0.33,6.48 16.77,15.01 9.45,18.23 16.93,17.16 z"
               id="path43" />
          </g>
        </g>
      </g>
      <g
         id="g56">
        <g
           class="cls-14"
           clip-path="url(#clippath-3)"
           id="g49">
          <path
             class="cls-4"
             d="m 153.33,65.67 v 0 C 136.9,64.54 120.41,64.5 103.97,65.58 l -1.45,0.09 c -5.66,0 -9.88,5.23 -8.67,10.76 l 12.31,56.59 c 0.5,2.31 2.55,3.96 4.91,3.96 h 33.71 c 2.37,0 4.41,-1.65 4.91,-3.96 L 162,76.43 c 1.2,-5.53 -3.01,-10.76 -8.67,-10.76 z"
             id="path45" />
          <path
             class="cls-7"
             d="m 154.03,119.31 c -3.03,3.13 -5.3,5.76 -9.56,4.97 -5.42,-1.11 -10.88,-0.54 -16.35,-0.59 v 0 c -0.07,0 -0.14,0 -0.2,0 -0.07,0 -0.14,0 -0.2,0 v 0 c -5.47,0.05 -10.93,-0.53 -16.35,0.59 -4.25,0.8 -6.53,-1.83 -9.56,-4.97 -2.44,-1.53 0.22,13.14 0.47,14.33 0.45,1.8 1.09,3.83 2.83,4.81 2.02,1.12 4.64,0.7 6.9,0.58 5.26,-0.45 10.59,-0.64 15.91,-0.58 5.32,-0.05 10.65,0.14 15.91,0.58 2.26,0.12 4.88,0.54 6.9,-0.58 1.73,-0.98 2.38,-3.01 2.83,-4.81 0.25,-1.19 2.91,-15.86 0.47,-14.33 z"
             id="path46" />
          <g
             id="g47">
            <polygon
               class="cls-2"
               points="114.07,67.36 125.28,69.04 137.87,66.37 150.73,70.49 159.77,75.03 157.75,80.09 160.2,86.93 157.13,91.72 158.92,95.75 164.16,78.15 162.42,69.39 159.31,66.57 142.67,62.27 105.97,65.33 91.53,64.31 97.54,93.07 95.44,72.85 98.46,67.36 107.78,69.87 "
               id="polygon46" />
            <path
               class="cls-2"
               d="m 159.58,105.81 -6.42,-14.38 3.16,-4.93 -2.32,-6.47 1.32,-3.31 -5.93,-2.97 -11.71,-3.75 -12.3,2.61 -10.9,-1.63 -6.5,2.6 -7.79,-2.1 -1.17,2.12 1.98,19.13 -6.91,1.08 -6.95,-33.29 18.79,1.33 37.03,-3.08 18.04,4.67 4.61,4.17 2.13,10.74 -8.18,27.49 z m -3.09,-36.35 1.77,0.89 -0.67,-0.61 -1.11,-0.29 z"
               id="path47" />
          </g>
          <g
             id="g48">
            <polygon
               class="cls-2"
               points="142.16,70.21 131.19,66.23 118.28,69.23 104.85,67.62 98.86,75.74 95.23,79.88 98.49,86.52 95.85,91.56 96.56,98.6 94.47,77.42 90.55,69.32 96.02,63.75 113.21,65.15 150,62.45 163.42,67.04 160.13,95.29 163.23,73.38 157.33,70.24 148.39,67.02 "
               id="polygon47" />
            <path
               class="cls-2"
               d="m 93.08,98.95 v 0 c 0,0 -0.82,-8.09 -0.82,-8.09 v -0.03 c 0,0 -1.1,-11.29 -1.1,-11.29 l -0.1,-0.21 0.07,-0.08 -0.09,-0.87 -4.72,-9.75 8.34,-8.51 18.56,1.51 37.23,-2.72 16.77,5.73 -0.76,6.5 0.57,0.3 -3.44,24.33 -6.94,-0.89 2.31,-19.81 -3.06,-1.63 -7.27,-2.62 -6.23,3.2 -11.44,-4.14 -12.5,2.9 -12.01,-1.43 -4.97,6.71 -2.09,2.39 3.02,6.14 -2.97,5.66 0.59,6.02 -6.97,0.7 z m 1.69,-28.93 1.57,3.24 4.16,-5.63 -3.13,-0.25 -2.6,2.65 z"
               id="path48" />
          </g>
        </g>
        <g
           class="cls-12"
           clip-path="url(#clippath-4)"
           id="g52">
          <path
             class="cls-4"
             d="m 72.9,70.36 v 0 C 60.88,74.22 40.62,81.29 26.3,89.43 l -1.27,0.72 c -5.1,2.46 -6.56,9.14 -3,13.74 l 38.5,49.35 c 1.49,1.92 4.07,2.56 6.2,1.53 l 17.07,-8.24 4.43,-2.14 8.85,-4.27 c 2.13,-1.03 3.24,-3.44 2.66,-5.8 L 85.53,76.57 c -1.39,-5.65 -7.52,-8.66 -12.62,-6.2 z"
             id="path49" />
          <path
             class="cls-7"
             d="m 62.5,144.75 c 3.67,-0.3 9.27,-3.45 12.6,-5.03 2.68,-1.27 5.39,-2.49 8.13,-3.61 4.15,-1.68 7.26,-2.16 10.53,-5.28 2.62,-2.5 3.13,-6.58 3.64,-7.3 1.83,-2.8 3.89,10.61 4.17,11.75 0.59,2.79 -0.57,5.5 -3.21,6.77 -9.33,3.8 -18.85,7.36 -27.47,12.72 -3.31,2.22 -8.36,3.97 -11.27,0.21 -2.15,-2.6 -4.2,-5.29 -6.3,-7.92 -0.44,-0.56 -0.97,-1.47 -0.81,-2.09 0.15,-0.6 -1.65,-3.68 -1.05,-3.72 1.14,-0.05 8.43,3.71 11.04,3.5 z"
             id="path50" />
          <g
             id="g51">
            <polygon
               class="cls-2"
               points="32.05,86.78 19.58,99.41 23.87,90.81 21.76,89.05 23.51,91.33 41.45,80.25 73.31,73.36 79.61,69.49 82.83,74.62 88.03,82.69 88.25,96.21 91.19,95.86 91.04,97.84 88.87,95.55 80,83.1 82.7,82.04 73.38,78.53 68.81,76.81 61.44,79.73 53.96,78.06 41.82,86.38 "
               id="polygon50" />
            <path
               class="cls-2"
               d="M 10.34,112.33 20.63,91.69 6,72.59 24.29,87.9 40.5,77.89 72.37,71 l 8.05,-4.94 4.53,7.22 5.57,8.65 0.19,11.46 3.2,-0.39 -0.78,10.66 -4.7,-4.96 -2.62,0.32 -0.06,-3.56 -9.36,-13.14 -7.55,-2.84 -7.19,2.85 -7.17,-1.6 -11.84,8.12 -9.51,0.39 z m 73.55,-28.08 1.7,2.39 -0.05,-3.04 -1.65,0.66 z m -41.5,-1.65 -2.18,1.34 0.78,-0.03 2.15,-1.48 -0.76,0.16 z m 31.06,-6.72 9.53,3.59 -4.17,-6.55 -4.56,2.79 -0.79,0.17 z"
               id="path51" />
          </g>
        </g>
        <g
           class="cls-15"
           clip-path="url(#clippath-5)"
           id="g55">
          <path
             class="cls-4"
             d="m -33.13,154.48 v 0 c 7.23,-12.11 20.01,-32.41 32.32,-46.12 l 1.09,-1.21 c 3.93,-4.97 11.27,-5.17 15.12,-0.42 l 41.17,51.37 c 1.61,1.99 1.58,4.88 -0.06,6.96 l -13.15,16.64 -3.41,4.32 -6.81,8.62 c -1.64,2.08 -4.45,2.77 -6.76,1.67 l -56.41,-27.03 c -5.52,-2.64 -7.02,-9.84 -3.09,-14.81 z"
             id="path52" />
          <path
             class="cls-7"
             d="m 36.83,178.56 c 2.76,-4.46 5.44,-9.22 8.83,-13.33 2.59,-3.34 2.76,-7.2 4.42,-10.93 0.74,-1.3 -1.26,-5.15 0.13,-5.73 1.56,0.16 4.94,3.9 5.97,5.07 4.28,5.62 5.32,8.42 0.72,14.88 -21.35,29.94 -27.29,31.97 -44.07,26.66 -6.29,-2.56 8.67,-1.75 11.74,-5.4 3.17,-3.85 9.52,-6.89 12.15,-11.03 l 0.11,-0.18 z"
             id="path53" />
          <g
             id="g54">
            <polygon
               class="cls-2"
               points="1.48,99.71 -0.22,102.63 -0.54,109.02 -17.23,123.96 -26.63,142.14 -43.82,159.56 -39.63,167.55 -37.92,170.18 -35.22,166.11 -31.85,166.48 -30.33,155.56 -21.66,150.99 -15.42,134.21 -8.76,130.46 -4.98,120.92 3.65,115.78 12.59,112.51 16.42,121.52 24.34,124.17 26.62,133.99 38.4,142.56 47.52,150.48 47.75,147.8 40.39,138.94 29.46,119.39 13.76,106.25 0.52,85.67 -8.19,88.02 -11.13,89.11 -7.75,92.63 -8.85,95.84 "
               id="polygon53" />
            <path
               class="cls-2"
               d="m -37.92,171.09 -2.12,-3.27 -4.39,-8.35 17.39,-17.62 9.48,-18.26 16.53,-14.8 0.32,-6.31 1.46,-2.52 -10.23,-3.83 1.16,-3.38 -3.7,-3.85 3.66,-1.36 9.1,-2.46 13.4,20.82 15.75,13.24 10.91,19.5 7.47,8.99 -0.34,3.86 -9.85,-8.56 -11.91,-8.66 -2.25,-9.73 -7.87,-2.64 -3.74,-8.77 -8.49,3.1 -8.4,5.01 -3.78,9.55 -6.66,3.75 -6.23,16.79 -8.62,4.54 -1.55,11.15 -3.55,-0.4 -2.95,4.46 z m -5.29,-11.44 4.02,7.66 1.27,1.95 2.44,-3.69 3.19,0.35 1.49,-10.69 8.73,-4.6 6.23,-16.78 6.67,-3.75 3.78,-9.53 8.78,-5.23 9.46,-3.47 3.93,9.23 7.97,2.67 2.29,9.91 11.64,8.46 8.41,7.3 0.13,-1.5 -7.28,-8.78 L 29.06,119.7 13.33,106.5 0.29,86.25 l -8.35,2.25 -2.18,0.81 3.07,3.19 -1.04,3.04 10.42,3.9 -1.93,3.33 -0.33,6.48 -16.77,15.01 -9.45,18.23 -16.93,17.16 z"
               id="path54" />
          </g>
        </g>
      </g>
      <g
         id="g60">
        <path
           class="cls-6"
           d="m 127.94,64.79 c 8.47,0 16.94,0.29 25.39,0.88 5.66,0 9.88,5.23 8.67,10.76 l -12.31,56.59 c -0.5,2.31 -2.55,3.96 -4.91,3.96 h -33.71 c -2.37,0 -4.41,-1.65 -4.91,-3.96 L 93.85,76.43 c -1.2,-5.53 3.01,-10.76 8.67,-10.76 l 1.45,-0.1 c 7.98,-0.52 15.97,-0.78 23.97,-0.78 m 0,-6 c -8.09,0 -16.29,0.27 -24.36,0.79 l -1.28,0.08 c -4.44,0.06 -8.57,2.08 -11.36,5.54 -2.84,3.52 -3.91,8.08 -2.95,12.5 l 12.31,56.59 c 1.1,5.03 5.63,8.68 10.78,8.68 h 33.71 c 5.15,0 9.68,-3.65 10.78,-8.68 L 167.88,77.7 c 0.96,-4.42 -0.12,-8.97 -2.95,-12.5 -2.79,-3.46 -6.92,-5.47 -11.35,-5.54 -8.49,-0.58 -17.11,-0.88 -25.62,-0.88 v 0 z"
           id="path56" />
        <path
           class="cls-6"
           d="m 76.67,69.5 c 4,0 7.8,2.77 8.85,7.06 l 14.21,57.75 c 0.58,2.36 -0.52,4.78 -2.66,5.8 l -8.85,4.27 -4.43,2.14 -17.07,8.24 c -0.68,0.33 -1.41,0.49 -2.14,0.49 -1.54,0 -3.05,-0.71 -4.06,-2.02 l -38.5,-49.35 c -3.56,-4.6 -2.1,-11.28 3,-13.74 l 1.27,-0.72 c 14.32,-8.14 34.59,-15.21 46.6,-19.07 1.22,-0.59 2.51,-0.87 3.77,-0.87 m 0.01,-5.98 c -2.06,0 -4.06,0.43 -5.95,1.27 -13.93,4.49 -33.33,11.47 -47.38,19.45 l -1.11,0.63 c -3.91,1.96 -6.73,5.54 -7.74,9.85 -1.06,4.5 -0.04,9.19 2.81,12.86 l 38.52,49.37 c 2.09,2.7 5.38,4.33 8.79,4.33 1.63,0 3.27,-0.38 4.74,-1.08 l 17.07,-8.24 4.43,-2.14 8.85,-4.27 c 4.65,-2.25 7.12,-7.56 5.87,-12.64 L 91.36,75.14 C 89.67,68.29 83.64,63.51 76.68,63.51 v 0 z"
           id="path57" />
        <path
           class="cls-6"
           d="m 8.14,103.29 c 2.72,0 5.4,1.14 7.26,3.44 l 41.17,51.37 c 1.61,1.99 1.58,4.88 -0.06,6.96 l -13.15,16.64 -3.41,4.32 -6.81,8.62 c -1.12,1.41 -2.78,2.19 -4.45,2.19 -0.78,0 -1.57,-0.17 -2.31,-0.52 l -56.41,-27.03 c -5.52,-2.64 -7.02,-9.84 -3.09,-14.81 7.23,-12.11 20.01,-32.41 32.32,-46.12 l 1.09,-1.21 c 2.03,-2.56 4.96,-3.86 7.86,-3.86 M 8.14,97.29 v 0 c -4.83,0 -9.36,2.18 -12.44,5.98 l -0.98,1.09 c -12.03,13.4 -24.45,32.76 -32.82,46.75 -2.86,3.82 -3.89,8.61 -2.82,13.21 1.06,4.58 4.08,8.36 8.29,10.38 l 56.41,27.03 c 1.54,0.74 3.19,1.11 4.9,1.11 3.58,0 6.92,-1.63 9.16,-4.47 l 6.81,-8.62 3.41,-4.32 13.15,-16.64 c 3.41,-4.31 3.41,-10.25 0.01,-14.45 L 20.07,102.99 C 17.14,99.37 12.79,97.3 8.13,97.3 v 0 z"
           id="path58" />
        <path
           class="cls-6"
           d="m 179.33,69.5 c 1.26,0 2.54,0.28 3.77,0.87 12.02,3.86 32.28,10.93 46.6,19.07 l 1.27,0.72 c 5.1,2.46 6.56,9.14 3,13.74 l -38.5,49.35 c -1.01,1.31 -2.52,2.02 -4.06,2.02 -0.72,0 -1.45,-0.16 -2.14,-0.49 l -17.07,-8.24 -4.43,-2.14 -8.85,-4.27 c -2.13,-1.03 -3.24,-3.44 -2.66,-5.8 l 14.21,-57.75 c 1.06,-4.29 4.85,-7.06 8.85,-7.06 m 0.01,-6.02 v 0 c -6.96,0 -13,4.78 -14.68,11.63 l -14.21,57.75 c -1.25,5.08 1.22,10.39 5.87,12.64 l 8.85,4.27 4.43,2.14 17.07,8.24 c 1.47,0.71 3.11,1.08 4.74,1.08 3.41,0 6.7,-1.63 8.81,-4.35 l 38.48,-49.33 c 2.86,-3.7 3.88,-8.39 2.82,-12.88 -1.02,-4.31 -3.83,-7.88 -7.74,-9.85 l -1.11,-0.63 c -14.05,-7.98 -33.45,-14.97 -47.38,-19.45 -1.89,-0.84 -3.89,-1.27 -5.95,-1.27 v 0 z"
           id="path59" />
        <path
           class="cls-6"
           d="m 247.86,103.29 c 2.9,0 5.83,1.3 7.86,3.86 l 1.09,1.21 c 12.31,13.71 25.09,34.01 32.32,46.12 3.93,4.97 2.42,12.16 -3.09,14.81 l -56.41,27.03 c -0.73,0.35 -1.52,0.52 -2.31,0.52 -1.67,0 -3.34,-0.77 -4.45,-2.19 l -6.81,-8.62 -3.41,-4.32 -13.15,-16.64 c -1.64,-2.08 -1.66,-4.97 -0.06,-6.96 l 41.17,-51.37 c 1.86,-2.3 4.54,-3.44 7.26,-3.44 m -0.01,-6.01 c -4.67,0 -9.01,2.07 -11.93,5.67 l -41.19,51.39 c -3.38,4.18 -3.37,10.12 0.03,14.43 l 13.15,16.64 3.41,4.32 6.81,8.62 c 2.24,2.84 5.58,4.47 9.16,4.47 1.71,0 3.36,-0.37 4.9,-1.11 l 56.41,-27.03 c 4.21,-2.02 7.23,-5.8 8.29,-10.38 1.07,-4.6 0.04,-9.39 -2.82,-13.21 -8.37,-13.99 -20.8,-33.35 -32.82,-46.75 l -0.98,-1.09 c -3.08,-3.8 -7.6,-5.98 -12.44,-5.98 v 0 z"
           id="path60" />
      </g>
      <g
         id="g65">
        <path
           class="cls-6"
           d="m 127.94,65.29 c 8.42,0 16.95,0.29 25.39,0.88 2.55,0 4.92,1.14 6.52,3.12 1.6,1.98 2.2,4.55 1.66,7.04 l -12.31,56.59 c -0.45,2.07 -2.31,3.57 -4.43,3.57 h -33.71 c -2.11,0 -3.98,-1.5 -4.43,-3.57 L 94.32,76.33 c -0.54,-2.49 0.06,-5.05 1.66,-7.04 1.6,-1.98 3.98,-3.12 6.55,-3.12 l 1.45,-0.1 c 7.93,-0.52 15.99,-0.78 23.94,-0.78 m 0.02,-0.5 c -7.99,0 -15.99,0.26 -23.97,0.78 l -1.45,0.1 c -5.66,0 -9.88,5.23 -8.67,10.76 l 12.31,56.59 c 0.5,2.31 2.55,3.96 4.91,3.96 h 33.71 c 2.37,0 4.41,-1.65 4.91,-3.96 L 162,76.43 c 1.2,-5.53 -3.01,-10.76 -8.67,-10.76 -8.45,-0.58 -16.92,-0.88 -25.39,-0.88 z"
           id="path61" />
        <path
           class="cls-6"
           d="m 76.67,70 c 3.96,0 7.4,2.75 8.37,6.68 l 14.21,57.75 c 0.52,2.11 -0.48,4.31 -2.39,5.23 l -8.85,4.27 -4.43,2.14 -17.07,8.24 c -0.6,0.29 -1.25,0.44 -1.92,0.44 -1.41,0 -2.78,-0.68 -3.67,-1.83 l -38.5,-49.35 c -1.64,-2.12 -2.23,-4.82 -1.62,-7.4 0.58,-2.47 2.2,-4.5 4.47,-5.6 l 1.27,-0.72 C 40.23,82.07 59.39,75.21 73.05,70.82 h 0.03 c 0,0 0.03,-0.03 0.03,-0.03 1.12,-0.54 2.32,-0.82 3.55,-0.82 m 0.01,-0.47 c -1.26,0 -2.54,0.28 -3.77,0.87 C 60.88,74.23 40.62,81.3 26.3,89.44 l -1.27,0.72 c -5.1,2.46 -6.56,9.14 -3,13.74 l 38.5,49.35 c 1.01,1.31 2.52,2.02 4.06,2.02 0.72,0 1.45,-0.16 2.14,-0.49 l 17.07,-8.24 4.43,-2.14 8.85,-4.27 c 2.13,-1.03 3.24,-3.44 2.66,-5.8 L 85.53,76.58 c -1.06,-4.29 -4.85,-7.06 -8.85,-7.06 v 0 z"
           id="path62" />
        <path
           class="cls-6"
           d="m 8.14,103.79 v 0 c 2.69,0 5.2,1.19 6.87,3.25 l 41.17,51.38 c 1.45,1.79 1.42,4.46 -0.06,6.34 l -13.15,16.64 -3.41,4.32 -6.81,8.62 c -0.99,1.25 -2.51,2 -4.06,2 -0.73,0 -1.44,-0.16 -2.09,-0.47 l -56.41,-27.03 c -2.42,-1.16 -4.16,-3.34 -4.77,-5.99 -0.65,-2.81 0.03,-5.75 1.85,-8.06 l 0.02,-0.03 0.02,-0.03 c 8.22,-13.76 20.49,-32.93 32.25,-46.03 l 1.11,-1.24 c 1.84,-2.33 4.56,-3.67 7.47,-3.67 m 0,-0.5 c -2.9,0 -5.83,1.3 -7.86,3.86 l -1.09,1.21 c -12.31,13.71 -25.09,34.01 -32.32,46.12 -3.93,4.97 -2.42,12.16 3.09,14.81 l 56.41,27.03 c 0.73,0.35 1.52,0.52 2.31,0.52 1.67,0 3.34,-0.77 4.45,-2.19 l 6.81,-8.62 3.41,-4.32 13.15,-16.64 c 1.64,-2.08 1.66,-4.97 0.06,-6.96 L 15.4,106.73 c -1.86,-2.3 -4.54,-3.44 -7.26,-3.44 z"
           id="path63" />
        <path
           class="cls-6"
           d="m 179.33,70 v 0 c 1.23,0 2.43,0.27 3.55,0.82 l 0.03,0.02 h 0.03 c 13.66,4.4 32.82,11.26 46.51,19.04 l 1.3,0.74 c 2.24,1.08 3.86,3.12 4.44,5.58 0.61,2.58 0.02,5.28 -1.62,7.4 l -38.5,49.35 c -0.88,1.14 -2.25,1.82 -3.66,1.82 -0.67,0 -1.32,-0.15 -1.92,-0.44 l -17.07,-8.24 -4.43,-2.14 -8.85,-4.27 c -1.9,-0.92 -2.91,-3.12 -2.39,-5.23 L 170.96,76.7 c 0.97,-3.93 4.41,-6.68 8.37,-6.68 m 0,-0.52 c -4,0 -7.8,2.77 -8.85,7.06 l -14.21,57.75 c -0.58,2.36 0.52,4.78 2.66,5.8 l 8.85,4.27 4.43,2.14 17.07,8.24 c 0.68,0.33 1.41,0.49 2.14,0.49 1.54,0 3.05,-0.71 4.06,-2.02 l 38.5,-49.35 c 3.56,-4.6 2.1,-11.28 -3,-13.74 l -1.27,-0.72 c -14.32,-8.14 -34.59,-15.21 -46.6,-19.07 -1.22,-0.59 -2.51,-0.87 -3.77,-0.87 v 0 z"
           id="path64" />
        <path
           class="cls-6"
           d="m 247.86,103.79 c 2.9,0 5.62,1.34 7.49,3.69 l 1.09,1.21 c 11.76,13.11 24.04,32.27 32.26,46.04 l 0.02,0.03 0.02,0.03 c 1.83,2.31 2.51,5.25 1.85,8.06 -0.61,2.65 -2.35,4.83 -4.77,5.99 l -56.41,27.03 c -0.65,0.31 -1.36,0.47 -2.09,0.47 -1.56,0 -3.07,-0.75 -4.06,-2 l -6.81,-8.62 -3.41,-4.32 -13.15,-16.64 c -1.48,-1.88 -1.51,-4.54 -0.06,-6.34 L 241,107.05 c 1.67,-2.07 4.18,-3.26 6.87,-3.26 m -0.01,-0.5 c -2.72,0 -5.4,1.14 -7.26,3.44 l -41.17,51.37 c -1.61,1.99 -1.58,4.88 0.06,6.96 l 13.15,16.64 3.41,4.32 6.81,8.62 c 1.12,1.41 2.78,2.19 4.45,2.19 0.78,0 1.57,-0.17 2.31,-0.52 l 56.41,-27.03 c 5.52,-2.64 7.02,-9.84 3.09,-14.81 -7.23,-12.11 -20.01,-32.41 -32.32,-46.12 l -1.09,-1.21 c -2.03,-2.56 -4.96,-3.86 -7.86,-3.86 v 0 z"
           id="path65" />
      </g>
    </g>
  </g>
  <text
     xml:space="preserve"
     id="text68"
     style="text-align:start;writing-mode:lr-tb;direction:ltr;white-space:pre;shape-inside:url(#rect68);display:inline;fill:#000000" />
  <path
     class="cls-6"
     d="m 128,5 c 32.85,0 63.74,12.79 86.97,36.03 C 238.2,64.26 251,95.15 251,128 c 0,32.85 -12.79,63.74 -36.03,86.97 C 191.73,238.2 160.85,251 128,251 95.15,251 64.26,238.21 41.03,214.97 17.8,191.73 5,160.85 5,128 5,95.15 17.79,64.26 41.03,41.03 64.27,17.8 95.15,5 128,5 m 0,-5 C 57.31,0 0,57.31 0,128 0,198.69 57.31,256 128,256 198.69,256 256,198.69 256,128 256,57.31 198.69,0 128,0 Z"
     id="path67" />
  <text
     xml:space="preserve"
     style="font-size:95.259px;text-align:start;writing-mode:lr-tb;direction:ltr;text-anchor:start;fill:#000000;stroke-width:7.93825"
     x="749.62665"
     y="110.94415"
     id="text67-2"><tspan
       sodipodi:role="line"
       x="749.62665"
       y="110.94415"
       style="font-style:normal;font-variant:normal;font-weight:500;font-stretch:normal;font-family:Futura;-inkscape-font-specification:'Futura Medium';text-align:center;text-anchor:middle;fill:#000000;stroke-width:7.93825"
       id="tspan68-2">CELBRIDGE DOCS</tspan></text>
  <text
     xml:space="preserve"
     style="font-size:95.259px;text-align:start;writing-mode:lr-tb;direction:ltr;text-anchor:start;fill:#ebff7d;stroke-width:7.93825;fill-opacity:1"
     x="747.36304"
     y="108.28581"
     id="text67"
     inkscape:highlight-color="#f5ff8c"><tspan
       sodipodi:role="line"
       x="747.36304"
       y="108.28581"
       style="font-style:normal;font-variant:normal;font-weight:500;font-stretch:normal;font-family:Futura;-inkscape-font-specification:'Futura Medium';text-align:center;text-anchor:middle;fill:#ebff7d;stroke-width:7.93825;fill-opacity:1"
       id="tspan68">CELBRIDGE DOCS</tspan></text>
</svg>
